
<svg id="Layer_2" data-name="Layer 2" xmlns="http://www.w3.org/2000/svg" viewBox="0 0 128 128"><title>SINGER</title><path d="M106.587,50.962a5.936,5.936,0,0,0-2.567-1.8,6,6,0,0,0-.2-6.982,5.835,5.835,0,0,0-1.15-4.928,5.907,5.907,0,0,0-.787-.771h0a5.692,5.692,0,0,0-1.02-2.682,5.8,5.8,0,0,0-3.684-7.262,5.875,5.875,0,0,0-9.182-7.2l-.405.4A5.934,5.934,0,0,0,85.831,17.3a6.04,6.04,0,0,0-8.036.513l-13.216,13.2a5.988,5.988,0,0,0-.324-6.994,5.894,5.894,0,0,0-8.721-.425L45.829,33.3a24.156,24.156,0,0,0-6.988,15.055,24.293,24.293,0,0,1-6.8,15.216L18.513,77.095a1.749,1.749,0,0,0,0,2.475l7.581,7.581L22.435,90.81a1.749,1.749,0,0,0,0,2.475l23.439,23.439a1.749,1.749,0,0,0,2.475,0L106.075,59A6.036,6.036,0,0,0,106.587,50.962Zm-9.46-20.368a2.185,2.185,0,0,1,.438.92h0a5.876,5.876,0,0,0-5.65,1.535l-.405.405a5.938,5.938,0,0,0-.305-.663h0l2.376-2.375a2.393,2.393,0,0,1,3.547.178ZM80.27,20.287A2.51,2.51,0,0,1,83.6,20a2.395,2.395,0,0,1,.178,3.547L71.146,36.182a1.75,1.75,0,1,0,2.475,2.475L86.255,26.021l4.212-4.212a2.337,2.337,0,0,1,1.808-.7,2.379,2.379,0,0,1,1.739.877,2.511,2.511,0,0,1-.287,3.333l-2.621,2.621-2.4,2.4h0a6.1,6.1,0,0,0-6.986,1.183L68.5,44.725a5.986,5.986,0,0,0-.324-6.993,5.926,5.926,0,0,0-3.337-2.015ZM22.225,78.332l12.29-12.29a27.792,27.792,0,0,0,7.814-17.4A20.653,20.653,0,0,1,48.3,35.771l9.705-9.705a2.394,2.394,0,0,1,3.547.179,2.512,2.512,0,0,1-.288,3.333l-7.61,7.61a3.433,3.433,0,0,0,.431,5.222c.053.038.112.063.167.1l-4.5,4.5a24.166,24.166,0,0,0-6.988,15.055,24.293,24.293,0,0,1-6.8,15.216l-7.394,7.394ZM103.6,56.522,47.111,113.012,26.146,92.047l12.29-12.29a27.792,27.792,0,0,0,7.814-17.4,20.664,20.664,0,0,1,5.975-12.871l9.706-9.705a2.394,2.394,0,0,1,3.547.179,2.51,2.51,0,0,1-.288,3.332L57.579,50.9a3.434,3.434,0,0,0,.432,5.222,3.507,3.507,0,0,0,4.487-.431L84.192,34a2.509,2.509,0,0,1,3.332-.288,2.394,2.394,0,0,1,.179,3.547L75.067,49.9a1.75,1.75,0,1,0,2.475,2.475L90.178,39.735l4.212-4.212a2.394,2.394,0,0,1,3.547.179,2.512,2.512,0,0,1-.288,3.333l-2.61,2.611-.011.009-14.1,14.1A1.75,1.75,0,1,0,83.4,58.23L97.492,44.14l.011-.009a2.393,2.393,0,0,1,3.547.178,2.512,2.512,0,0,1-.288,3.333l-2.9,2.9L86.787,61.616a1.75,1.75,0,1,0,2.475,2.475l11.079-11.079a2.394,2.394,0,0,1,3.547.179A2.51,2.51,0,0,1,103.6,56.522Z"/><path d="M73.729,54.649a1.7,1.7,0,0,0-.16-.3,1.433,1.433,0,0,0-.22-.27,1.817,1.817,0,0,0-2.47,0,1.433,1.433,0,0,0-.22.27,1.7,1.7,0,0,0-.16.3,2.16,2.16,0,0,0-.1.33,2.005,2.005,0,0,0-.029.34,2.123,2.123,0,0,0,.029.351,1.223,1.223,0,0,0,.1.32,1.416,1.416,0,0,0,.16.3,1.433,1.433,0,0,0,.22.27,1.731,1.731,0,0,0,1.229.51,1.661,1.661,0,0,0,.671-.13,1.723,1.723,0,0,0,.569-.38,1.132,1.132,0,0,0,.22-.27,1.079,1.079,0,0,0,.16-.3,1.187,1.187,0,0,0,.1-.32,2.142,2.142,0,0,0,.04-.351,2.028,2.028,0,0,0-.04-.34A1.389,1.389,0,0,0,73.729,54.649Z"/><path d="M78.95,59.729a1.339,1.339,0,0,0-.311-.16,1.209,1.209,0,0,0-.32-.1,1.609,1.609,0,0,0-.689,0,1.221,1.221,0,0,0-.32.1,1.333,1.333,0,0,0-.31.16,1.3,1.3,0,0,0-.26.221,1.83,1.83,0,0,0-.221.26,2.238,2.238,0,0,0-.16.3,2.122,2.122,0,0,0-.1.33,2,2,0,0,0-.03.34,1.75,1.75,0,0,0,3.5,0,1.722,1.722,0,0,0-.52-1.229A1.322,1.322,0,0,0,78.95,59.729Z"/><path d="M83.49,65.33a1.175,1.175,0,0,0-.32.1,1.3,1.3,0,0,0-.311.16,1.687,1.687,0,0,0-.26.21,1.433,1.433,0,0,0-.22.27,1.71,1.71,0,0,0-.16.3,1.993,1.993,0,0,0-.1.33,1.91,1.91,0,0,0-.04.34,1.715,1.715,0,0,0,.14.67,1.789,1.789,0,0,0,.38.57,1.751,1.751,0,0,0,2.47,0,1.63,1.63,0,0,0,.381-.57,1.715,1.715,0,0,0,.14-.67,1.75,1.75,0,0,0-2.1-1.71Z"/><path d="M30.651,30.577a1.75,1.75,0,0,0,1.75-1.75V26.151a1.75,1.75,0,0,0-3.5,0v2.676A1.75,1.75,0,0,0,30.651,30.577Z"/><path d="M33.91,34.03h2.675a1.75,1.75,0,0,0,0-3.5H33.91a1.75,1.75,0,0,0,0,3.5Z"/><path d="M30.457,33.789a1.75,1.75,0,0,0-1.75,1.75v2.675a1.75,1.75,0,0,0,3.5,0V35.539A1.75,1.75,0,0,0,30.457,33.789Z"/><path d="M24.522,33.836H27.2a1.75,1.75,0,1,0,0-3.5H24.522a1.75,1.75,0,0,0,0,3.5Z"/><path d="M100.566,72.052v2.676a1.75,1.75,0,0,0,3.5,0V72.052a1.75,1.75,0,0,0-3.5,0Z"/><path d="M108.25,76.431h-2.675a1.75,1.75,0,1,0,0,3.5h2.675a1.75,1.75,0,0,0,0-3.5Z"/><path d="M102.122,79.689a1.75,1.75,0,0,0-1.75,1.75v2.675a1.75,1.75,0,0,0,3.5,0V81.439A1.75,1.75,0,0,0,102.122,79.689Z"/><path d="M98.863,76.236H96.187a1.75,1.75,0,0,0,0,3.5h2.676a1.75,1.75,0,1,0,0-3.5Z"/></svg>