
<svg xmlns="http://www.w3.org/2000/svg" xmlns:xlink="http://www.w3.org/1999/xlink" version="1.1" id="Layer_1" x="0px" y="0px" viewBox="0 0 512.001 512.001" style="enable-background:new 0 0 512.001 512.001;" xml:space="preserve">
<path style="fill:#FE9901;" d="M261.76,8.259C186.34,5.024,123.855,66.41,123.855,141.899v194.589c0,0.063,0.051,0.113,0.113,0.113  h264.066c0.063,0,0.113-0.051,0.113-0.113V140.282C388.146,69.23,332.071,11.275,261.76,8.259z"/>
<path style="fill:#F28F0C;" d="M261.76,8.259c-6.958-0.298-13.803-0.043-20.502,0.719c65.944,7.424,117.2,63.376,117.2,131.304  v196.206c0,0.063-0.051,0.113-0.113,0.113h29.688c0.063,0,0.113-0.051,0.113-0.113V140.282  C388.146,69.23,332.071,11.275,261.76,8.259z"/>
<path style="fill:#FED9A8;" d="M298.932,277.238c-0.508,0.29-0.508,0.29-1.529,0.823c-4.982,2.625-10.109,4.645-15.277,5.928  l-1.026,0.255c-22.465,5.578-29.032,5.54-51.478-0.112c-5.615-1.413-11.174-3.714-16.556-6.7l-3.92,32.369l-35.428,21.144  l82.282,68.768v0.003l0.002-0.002l0.002,0.002v-0.003l82.282-68.769L302.857,309.8L298.932,277.238z"/>
<path style="fill:#F9A93E;" d="M209.145,309.8l3.92-32.369c-26.349-14.62-48.341-46.067-50.475-74.757  c-0.103-0.005-0.202-0.023-0.304-0.029h-0.085v98.574c0,11.457,4.58,21.839,12,29.434L209.145,309.8z"/>
<path style="fill:#C9E7F8;" d="M488.959,409.269c-1.803-32.654-23.499-60.137-54.174-68.369l-101.742-25.641  c-5.39-1.358-11.107-0.226-15.57,3.087l-61.472,45.609l-61.472-45.609c-4.465-3.313-10.18-4.445-15.57-3.087L77.216,340.9  c-30.675,8.232-52.371,35.715-54.174,68.369l-5.02,83.032c-0.379,6.27,4.604,11.563,10.885,11.563h226.025h1.067h1.067h226.025  c6.282,0,11.264-5.292,10.885-11.563L488.959,409.269z"/>
<path style="fill:#FED9A8;" d="M349.594,152.851v-42.652c0-1.832-2.399-2.544-3.377-0.995  c-20.436,32.36-67.632,49.417-122.599,49.417c-22.068,0-61.217-5.771-61.217-5.771c-10.14,0.592-18.187,8.979-18.187,19.268v11.278  c0,10.353,8.147,18.78,18.378,19.278c2.57,34.549,33.932,73.124,67.031,81.457c22.446,5.651,29.013,5.689,51.478,0.112l1.026-0.255  c33.153-8.231,64.579-46.726,67.261-81.313c10.238-0.489,18.394-8.92,18.394-19.279v-11.278  C367.78,161.831,359.734,153.443,349.594,152.851z"/>
<path style="fill:#FFC07B;" d="M349.594,152.851v-42.653c0-1.854-2.409-2.525-3.401-0.959c-6.327,10.001-15.217,18.535-26.096,25.56  v18.051l-0.207,49.825c-2.683,34.587-34.108,73.082-67.261,81.313l-1.026,0.255c-4.068,1.01-7.608,1.833-10.822,2.474  c14.309,2.881,22.066,2.058,40.32-2.474l1.026-0.255c33.153-8.231,64.579-46.726,67.261-81.313  c10.238-0.489,18.394-8.92,18.394-19.279v-11.278C367.78,161.831,359.734,153.443,349.594,152.851z"/>
<path style="fill:#F7C68B;" d="M164.026,190.952h4.894V164.59h-4.894c-4.313,0-7.809,3.496-7.809,7.809v10.744  C156.217,187.455,159.713,190.952,164.026,190.952z"/>
<path style="fill:#F2AD5A;" d="M348.114,190.952h-4.894V164.59h4.894c4.313,0,7.809,3.496,7.809,7.809v10.744  C355.922,187.455,352.427,190.952,348.114,190.952z"/>
<path style="fill:#F2C18B;" d="M226.486,283.239c-0.505-0.157-1.01-0.318-1.514-0.489c-0.325-0.111-0.651-0.226-0.975-0.342  c-0.441-0.157-0.883-0.32-1.323-0.488c-0.35-0.133-0.701-0.268-1.051-0.408c-0.418-0.167-0.833-0.342-1.249-0.517  c-0.356-0.151-0.713-0.297-1.067-0.455c-0.464-0.205-0.927-0.423-1.391-0.639c-0.571-0.267-1.138-0.541-1.705-0.823  c-0.43-0.214-0.859-0.426-1.286-0.649c-0.341-0.178-0.679-0.363-1.019-0.547c-0.28-0.151-0.562-0.296-0.842-0.451l-0.162,1.334  c36.397,32.135,68.064,27.066,68.064,27.066c8.668-1.279,15.373-4.22,20.496-7.586l-2.532-21.009c-0.508,0.29-0.508,0.29-1.53,0.823  c-2.097,1.104-4.221,2.095-6.361,2.975c-0.035,0.014-0.07,0.028-0.106,0.043c-0.643,0.264-1.289,0.516-1.935,0.758  c-0.133,0.05-0.267,0.1-0.4,0.149c-0.554,0.204-1.109,0.398-1.665,0.586c-0.182,0.062-0.364,0.125-0.547,0.184  c-0.53,0.174-1.061,0.336-1.593,0.495c-0.187,0.055-0.372,0.115-0.559,0.168c-0.704,0.202-1.408,0.394-2.113,0.569l-1.026,0.255  c-22.465,5.578-29.032,5.54-51.478-0.112c-0.779-0.196-1.558-0.413-2.334-0.643C227.02,283.409,226.753,283.322,226.486,283.239z"/>
<path style="fill:#FFC07B;" d="M223.595,158.66c-21.219,0-58.208-5.331-61.027-5.743v6.642c0,0,39.809,14.936,61.027,14.936  c58.256,0,107.783-19.16,125.976-55.39v-8.989c0-1.796-2.356-2.496-3.313-0.976C325.858,141.567,278.621,158.66,223.595,158.66z"/>
<path style="fill:#FFF4E9;" d="M256.001,260.994c17.52,0,31.722-11.826,31.722-26.414H224.28  C224.278,249.168,238.481,260.994,256.001,260.994z"/>
<g>
	<path style="fill:#A2D8F4;" d="M93.174,503.864l3.739-54.872c1.844-27.059-5.322-54.124-21.068-76.207   c-5.552-7.785-12.405-15.286-20.75-21.649c-18.577,12.811-30.725,34.062-32.054,58.133l-5.007,83.034   c-0.379,6.27,4.605,11.561,10.885,11.561H93.174z"/>
	<path style="fill:#A2D8F4;" d="M488.959,409.269c-1.329-24.071-13.477-45.321-32.054-58.133   c-8.345,6.363-15.198,13.864-20.75,21.649c-15.746,22.082-22.912,49.148-21.068,76.207l3.739,54.872h64.254   c6.281,0,11.263-5.292,10.885-11.561L488.959,409.269z"/>
</g>
<rect x="244.359" y="363.951" style="fill:#B2E4F9;" width="23.276" height="139.909"/>
<circle style="fill:#232323;" cx="255.998" cy="398.369" r="8.7"/>
<g>
	<path style="fill:#A2D8F4;" d="M256.001,363.956l18.945,35.996c1.926,3.661,6.798,4.504,9.843,1.704l84.134-77.354l-35.88-9.042   c-5.39-1.358-11.107-0.226-15.57,3.087L256.001,363.956z"/>
	<path style="fill:#A2D8F4;" d="M255.997,363.956l-18.945,35.996c-1.926,3.661-6.798,4.504-9.843,1.704l-84.134-77.354l35.88-9.042   c5.39-1.358,11.107-0.226,15.57,3.087L255.997,363.956z"/>
</g>
<path id="SVGCleanerId_0" style="fill:#A2D8F4;" d="M380.313,456.548l-29.717,16.455c-0.842,0.466-1.865,0.459-2.7-0.018  l-28.762-16.432c-0.858-0.49-1.387-1.403-1.387-2.391v-48.569c0-1.521,1.233-2.754,2.754-2.754h58.479  c1.521,0,2.754,1.233,2.754,2.754v48.545C381.733,455.14,381.19,456.063,380.313,456.548z"/>
<g>
	<path id="SVGCleanerId_0_1_" style="fill:#A2D8F4;" d="M380.313,456.548l-29.717,16.455c-0.842,0.466-1.865,0.459-2.7-0.018   l-28.762-16.432c-0.858-0.49-1.387-1.403-1.387-2.391v-48.569c0-1.521,1.233-2.754,2.754-2.754h58.479   c1.521,0,2.754,1.233,2.754,2.754v48.545C381.733,455.14,381.19,456.063,380.313,456.548z"/>
</g>
<g>
	<path style="fill:#A2D8F4;" d="M479.347,375.887c0.192,0.344,0.375,0.691,0.562,1.038   C479.722,376.579,479.539,376.231,479.347,375.887z"/>
	<path style="fill:#A2D8F4;" d="M476.919,371.854c0.127,0.196,0.256,0.392,0.381,0.589   C477.175,372.246,477.046,372.052,476.919,371.854z"/>
	<path style="fill:#A2D8F4;" d="M486.828,394.956c0.151,0.615,0.294,1.232,0.431,1.853   C487.123,396.189,486.979,395.571,486.828,394.956z"/>
	<path style="fill:#A2D8F4;" d="M487.445,397.681c0.151,0.728,0.292,1.46,0.422,2.197   C487.737,399.141,487.596,398.408,487.445,397.681z"/>
	<path style="fill:#A2D8F4;" d="M474.822,368.762c0.077,0.107,0.152,0.217,0.229,0.325   C474.974,368.978,474.899,368.869,474.822,368.762z"/>
	<path style="fill:#A2D8F4;" d="M485.19,389.224c0.187,0.568,0.366,1.14,0.539,1.714   C485.556,390.364,485.377,389.792,485.19,389.224z"/>
	<path style="fill:#A2D8F4;" d="M482.056,381.234c0.192,0.418,0.379,0.837,0.562,1.259   C482.434,382.071,482.247,381.651,482.056,381.234z"/>
	<path style="fill:#A2D8F4;" d="M484.295,386.663c0.191,0.519,0.379,1.039,0.559,1.562   C484.674,387.701,484.486,387.181,484.295,386.663z"/>
	<path style="fill:#A2D8F4;" d="M480.949,378.928c0.191,0.381,0.381,0.761,0.565,1.145   C481.33,379.689,481.139,379.308,480.949,378.928z"/>
	<path style="fill:#A2D8F4;" d="M483.08,383.557c0.303,0.724,0.597,1.452,0.878,2.187   C483.676,385.01,483.383,384.281,483.08,383.557z"/>
	<path style="fill:#A2D8F4;" d="M478.112,373.768c0.167,0.277,0.331,0.554,0.494,0.833   C478.443,374.322,478.279,374.044,478.112,373.768z"/>
	<path style="fill:#A2D8F4;" d="M485.968,391.72c0.235,0.808,0.457,1.623,0.667,2.442   C486.425,393.343,486.203,392.528,485.968,391.72z"/>
	<path style="fill:#A2D8F4;" d="M469.552,362.226c0.017,0.02,0.035,0.039,0.052,0.059   C469.586,362.265,469.569,362.246,469.552,362.226z"/>
	<path style="fill:#A2D8F4;" d="M468.029,360.596c0.055,0.057,0.111,0.115,0.166,0.172   C468.139,360.711,468.084,360.653,468.029,360.596z"/>
	<polygon style="fill:#A2D8F4;" points="456.905,351.136 456.905,351.136 456.909,351.139  "/>
	<path style="fill:#A2D8F4;" d="M488.756,406.539c0.081,0.907,0.153,1.816,0.204,2.73   C488.909,408.354,488.837,407.445,488.756,406.539z"/>
	<path style="fill:#A2D8F4;" d="M473.421,366.875c0.117,0.153,0.234,0.307,0.35,0.461   C473.655,367.182,473.538,367.028,473.421,366.875z"/>
	<path style="fill:#A2D8F4;" d="M487.949,400.312c0.15,0.873,0.282,1.753,0.402,2.637   C488.23,402.065,488.098,401.185,487.949,400.312z"/>
	<path style="fill:#A2D8F4;" d="M488.447,403.711c0.085,0.674,0.162,1.349,0.23,2.027   C488.609,405.059,488.532,404.383,488.447,403.711z"/>
</g>
<g>
	<path style="fill:#C9E7F8;" d="M475.051,369.087c0.643,0.907,1.266,1.83,1.869,2.767   C476.316,370.917,475.694,369.995,475.051,369.087z"/>
	<path style="fill:#C9E7F8;" d="M478.606,374.601c0.249,0.427,0.499,0.854,0.741,1.286   C479.105,375.455,478.856,375.028,478.606,374.601z"/>
	<path style="fill:#C9E7F8;" d="M469.604,362.285c1.333,1.476,2.604,3.009,3.817,4.591   C472.208,365.293,470.936,363.761,469.604,362.285z"/>
	<path style="fill:#C9E7F8;" d="M468.194,360.768c0.459,0.479,0.911,0.965,1.357,1.458   C469.106,361.734,468.653,361.249,468.194,360.768z"/>
	<path style="fill:#C9E7F8;" d="M477.3,372.444c0.277,0.437,0.546,0.88,0.812,1.323C477.845,373.324,477.576,372.881,477.3,372.444z   "/>
	<path style="fill:#C9E7F8;" d="M473.771,367.336c0.356,0.471,0.707,0.946,1.051,1.425   C474.478,368.281,474.126,367.808,473.771,367.336z"/>
	<path style="fill:#C9E7F8;" d="M482.618,382.493c0.155,0.355,0.312,0.707,0.462,1.064   C482.931,383.2,482.773,382.847,482.618,382.493z"/>
	<path style="fill:#C9E7F8;" d="M488.677,405.738c0.027,0.267,0.054,0.533,0.078,0.801   C488.731,406.271,488.704,406.005,488.677,405.738z"/>
	<path style="fill:#C9E7F8;" d="M468.029,360.596c-3.376-3.511-7.095-6.681-11.12-9.457   C460.932,353.914,464.653,357.085,468.029,360.596z"/>
	<path style="fill:#C9E7F8;" d="M488.35,402.948c0.035,0.253,0.064,0.508,0.097,0.761   C488.415,403.457,488.385,403.202,488.35,402.948z"/>
</g>
<path style="fill:#A2D8F4;" d="M456.905,351.136c-6.623-4.568-14.057-8.073-22.12-10.236l-101.742-25.641  c-5.39-1.358-11.107-0.226-15.57,3.087l-0.208,0.155l88.878,22.399c14.671,3.936,27.279,12.286,36.648,23.489  C446.93,359.661,451.615,355.169,456.905,351.136z"/>
<g>
	<polygon style="fill:#C9E7F8;" points="488.959,409.269 494.663,503.864 494.677,503.864  "/>
	<path style="fill:#C9E7F8;" d="M487.867,399.876c0.026,0.145,0.055,0.29,0.08,0.435   C487.923,400.166,487.893,400.021,487.867,399.876z"/>
	<path style="fill:#C9E7F8;" d="M485.729,390.938c0.079,0.26,0.162,0.52,0.239,0.781   C485.892,391.457,485.808,391.199,485.729,390.938z"/>
	<path style="fill:#C9E7F8;" d="M483.957,385.744c0.116,0.304,0.226,0.612,0.338,0.918   C484.182,386.356,484.074,386.049,483.957,385.744z"/>
	<path style="fill:#C9E7F8;" d="M481.514,380.073c0.184,0.385,0.364,0.772,0.542,1.161   C481.878,380.845,481.697,380.458,481.514,380.073z"/>
	<path style="fill:#C9E7F8;" d="M484.854,388.225c0.114,0.332,0.226,0.665,0.336,0.999   C485.08,388.89,484.968,388.557,484.854,388.225z"/>
	<path style="fill:#C9E7F8;" d="M479.909,376.925c0.356,0.662,0.703,1.329,1.039,2.002   C480.611,378.254,480.264,377.587,479.909,376.925z"/>
	<path style="fill:#C9E7F8;" d="M487.259,396.81c0.064,0.29,0.127,0.58,0.187,0.871C487.386,397.389,487.323,397.099,487.259,396.81   z"/>
	<path style="fill:#C9E7F8;" d="M486.635,394.162c0.067,0.264,0.129,0.53,0.194,0.795   C486.764,394.691,486.702,394.425,486.635,394.162z"/>
</g>
<path style="fill:#8FCBE5;" d="M488.959,409.269c-0.051-0.914-0.121-1.823-0.204-2.73c-0.024-0.268-0.052-0.534-0.078-0.801  c-0.068-0.678-0.145-1.355-0.23-2.027c-0.033-0.254-0.062-0.509-0.097-0.761c-0.12-0.883-0.253-1.763-0.402-2.637  c-0.025-0.146-0.054-0.29-0.08-0.435c-0.13-0.735-0.271-1.468-0.422-2.197c-0.06-0.291-0.124-0.581-0.187-0.871  c-0.136-0.62-0.28-1.238-0.431-1.853c-0.065-0.265-0.127-0.532-0.194-0.795c-0.209-0.819-0.432-1.634-0.667-2.442  c-0.076-0.261-0.159-0.521-0.239-0.781c-0.174-0.574-0.353-1.145-0.539-1.714c-0.11-0.334-0.221-0.667-0.336-0.999  c-0.18-0.524-0.368-1.044-0.559-1.562c-0.113-0.306-0.221-0.614-0.338-0.918c-0.281-0.734-0.575-1.463-0.878-2.187  c-0.15-0.357-0.307-0.71-0.462-1.064c-0.184-0.422-0.371-0.842-0.562-1.259c-0.178-0.388-0.358-0.776-0.542-1.161  c-0.184-0.384-0.374-0.765-0.565-1.145c-0.337-0.674-0.683-1.341-1.039-2.002c-0.187-0.346-0.371-0.694-0.562-1.038  c-0.242-0.432-0.49-0.859-0.741-1.286c-0.163-0.279-0.328-0.556-0.494-0.833c-0.267-0.444-0.537-0.886-0.812-1.323  c-0.125-0.197-0.254-0.393-0.381-0.589c-0.603-0.937-1.226-1.86-1.869-2.767c-0.077-0.108-0.151-0.218-0.229-0.325  c-0.345-0.481-0.696-0.955-1.051-1.425c-0.437-0.58-0.886-1.15-1.318-1.737c-0.861-1.169-1.855-2.229-2.836-3.3  c-0.023-0.024-0.044-0.05-0.066-0.074c-0.446-0.492-0.898-0.977-1.357-1.458c-0.055-0.058-0.111-0.115-0.166-0.172  c-3.376-3.509-7.096-6.682-11.12-9.457c-0.001-0.001-0.002-0.002-0.004-0.002c-5.289,4.033-9.974,8.524-14.113,13.253  c10.22,12.222,16.585,27.843,17.525,44.879l5.719,94.596h17.046c6.281,0,11.263-5.292,10.885-11.561L488.959,409.269z"/>
<g>
	<path style="fill:#232323;" d="M207.542,174.496c-4.713,0-8.535,3.822-8.535,8.535v6.839c0,4.713,3.822,8.535,8.535,8.535   c4.713,0,8.535-3.82,8.535-8.535v-6.839C216.077,178.316,212.255,174.496,207.542,174.496z"/>
	<path style="fill:#232323;" d="M304.459,198.405c4.713,0,8.535-3.82,8.535-8.535v-6.839c0-4.713-3.822-8.535-8.535-8.535   c-4.713,0-8.535,3.822-8.535,8.535v6.839C295.924,194.583,299.746,198.405,304.459,198.405z"/>
	<circle style="fill:#232323;" cx="255.998" cy="437.669" r="8.7"/>
	<circle style="fill:#232323;" cx="255.998" cy="476.969" r="8.7"/>
	<path style="fill:#232323;" d="M378.979,394.704H320.5c-6.004,0-10.889,4.885-10.889,10.89v48.569c0,3.897,2.102,7.52,5.488,9.456   l28.763,16.433c1.642,0.937,3.509,1.433,5.401,1.433c1.841,0,3.666-0.472,5.274-1.363l29.714-16.453   c3.466-1.917,5.619-5.568,5.619-9.528v-48.545C389.869,399.59,384.983,394.704,378.979,394.704z M373.598,450.967l-24.295,13.453   l-23.421-13.38v-40.065h47.715V450.967z"/>
	<path style="fill:#232323;" d="M502.099,491.811l-5.006-82.784l-0.012-0.206c-0.056-1.029-0.138-2.052-0.229-3.073   c-0.022-0.235-0.046-0.471-0.068-0.706c-0.091-0.932-0.196-1.86-0.317-2.783c-0.01-0.072-0.017-0.144-0.027-0.216   c-2.752-20.73-12.751-39.266-28.273-52.493c-0.125-0.107-0.251-0.215-0.377-0.321c-0.591-0.498-1.191-0.988-1.798-1.471   c-0.304-0.242-0.61-0.483-0.917-0.721c-0.554-0.427-1.113-0.852-1.68-1.266c-0.463-0.34-0.934-0.669-1.405-0.999   c-0.157-0.11-0.31-0.225-0.468-0.333c-0.023-0.016-0.049-0.026-0.073-0.042c-7.36-5.067-15.614-8.954-24.556-11.354   c-0.04-0.011-0.08-0.022-0.12-0.031l-40.491-10.204V258.84c0-4.493-3.641-8.136-8.136-8.136s-8.136,3.643-8.136,8.136v59.867   l-9.099-2.293h-0.001l-35.881-9.042c-5.973-1.506-12.169-0.896-17.643,1.627l-6.933-4.137l-2.822-23.421   c24.475-15.65,44.562-44.078,49.107-71.875c11.173-3.513,19.176-13.925,19.176-26.169v-11.278c0-11.83-7.544-22.013-18.187-25.83   v-36.09c0-5.503-4.485-9.98-9.998-9.98c-3.421,0-6.559,1.736-8.393,4.641c-18.044,28.57-61.304,45.626-115.722,45.626   c-21.211,0-59.644-5.628-60.03-5.684c-0.551-0.081-1.11-0.104-1.661-0.073c-14.494,0.847-25.848,12.878-25.848,27.39v11.278   c0,12.227,7.986,22.633,19.14,26.157c4.477,27.867,24.597,56.425,49.141,72.107l-2.809,23.197l-6.936,4.139   c0.001,0,0.001,0.001,0.002,0.001c-5.252-2.42-11.165-3.071-16.912-1.792c-0.246,0.054-0.494,0.102-0.739,0.164l-35.879,9.042   c-0.004,0.001-0.008,0.003-0.012,0.004l-9.085,2.29V141.899c0-34.26,14.186-67.502,38.923-91.2   c24.606-23.573,56.736-35.765,90.5-34.311c66.505,2.853,118.6,57.274,118.6,123.895v83.258c0,4.493,3.641,8.136,8.136,8.136   s8.136-3.643,8.136-8.136v-83.258c0-36.406-13.885-70.911-39.095-97.161C332.05,16.95,298.284,1.682,262.108,0.131   c-38.237-1.64-74.611,12.147-102.452,38.818c-27.922,26.752-43.937,64.275-43.937,102.949v180.908l-40.491,10.204   c-0.04,0.01-0.08,0.021-0.12,0.031c-8.943,2.399-17.197,6.287-24.556,11.354c-0.023,0.016-0.049,0.026-0.073,0.042   c-0.158,0.108-0.311,0.223-0.468,0.333c-0.471,0.33-0.942,0.66-1.405,0.999c-0.567,0.414-1.125,0.839-1.68,1.266   c-0.307,0.238-0.612,0.478-0.916,0.72c-0.609,0.484-1.209,0.974-1.802,1.473c-0.125,0.105-0.248,0.212-0.373,0.318   c-16.301,13.889-26.509,33.632-28.629,55.593c-0.017,0.177-0.035,0.353-0.051,0.529c-0.093,1.032-0.176,2.068-0.233,3.108   l-0.785,13.017c-0.27,4.485,3.146,8.339,7.631,8.611c4.486,0.274,8.339-3.146,8.611-7.631l0.788-13.057l0,0   c0-0.003,0-0.005,0-0.008c0.059-1.061,0.149-2.114,0.253-3.163c0.04-0.397,0.088-0.791,0.135-1.186   c0.073-0.624,0.154-1.244,0.243-1.862c0.074-0.514,0.149-1.027,0.234-1.537c0.065-0.393,0.141-0.781,0.213-1.17   c2.798-15.117,10.444-28.496,21.396-38.187c0.308-0.271,0.61-0.548,0.923-0.814c0.113-0.097,0.231-0.188,0.345-0.284   c5.218,4.613,10.018,9.976,14.315,16.002c14.366,20.149,21.317,45.339,19.574,70.931l-3.223,47.29H28.92   c-1.04,0-1.71-0.546-2.015-0.871s-0.81-1.026-0.747-2.064l2.064-34.239c0.27-4.485-3.146-8.341-7.631-8.611   c-4.489-0.272-8.339,3.146-8.611,7.631L9.93,491.559c-0.008,0.085-0.023,0.167-0.028,0.253c-0.316,5.218,1.559,10.394,5.142,14.2   s8.636,5.989,13.863,5.989h454.187c5.227,0,10.281-2.184,13.863-5.989C500.541,502.204,502.415,497.028,502.099,491.811z    M322.32,324.881c2.466-1.83,5.752-2.484,8.735-1.732l21.272,5.361l-71.292,65.545l-14.589-27.719L322.32,324.881z    M170.703,202.071c-0.305-4.096-3.615-7.323-7.718-7.523c-5.964-0.291-10.637-5.188-10.637-11.152v-11.278   c0-5.666,4.255-10.402,9.813-11.082c6.284,0.904,40.712,5.72,61.456,5.72c28.568,0,55.267-4.542,77.215-13.133   c16.384-6.414,30.148-15.12,40.627-25.607v24.835c0,4.309,3.359,7.87,7.661,8.121c5.902,0.345,10.525,5.241,10.525,11.147v11.278   c0,5.968-4.677,10.867-10.647,11.152c-4.095,0.196-7.405,3.409-7.722,7.498c-2.049,26.427-22.983,55.591-47.165,68.556   c-0.128,0.067-0.287,0.15-0.5,0.261c-0.183,0.097-0.367,0.185-0.55,0.28c-0.454,0.234-0.909,0.466-1.366,0.689   c-0.361,0.176-0.721,0.346-1.081,0.514c-0.561,0.26-1.123,0.513-1.686,0.756c-0.335,0.144-0.669,0.283-1.003,0.421   c-0.589,0.242-1.179,0.474-1.77,0.694c-0.242,0.09-0.484,0.182-0.725,0.269c-0.752,0.27-1.505,0.523-2.257,0.758   c-0.191,0.06-0.381,0.115-0.571,0.172c-0.793,0.238-1.587,0.463-2.381,0.662c-0.018,0.004-0.037,0.011-0.056,0.015l-1.023,0.255   c-9.987,2.48-17.057,3.915-23.64,3.915c-6.66,0-13.535-1.413-23.891-4.021c-0.79-0.199-1.578-0.427-2.367-0.666   c-0.271-0.082-0.543-0.166-0.816-0.254c-0.526-0.168-1.051-0.35-1.576-0.535c-0.714-0.253-1.429-0.52-2.147-0.806   c-0.143-0.056-0.285-0.112-0.428-0.169c-2.406-0.982-4.831-2.148-7.261-3.496c-0.068-0.038-0.141-0.064-0.21-0.1   C193.02,256.952,172.643,228.149,170.703,202.071z M209.304,319.179l4.01-2.394c2.162-1.29,3.605-3.508,3.907-6.008l2.573-21.24   c0.384,0.146,0.767,0.281,1.15,0.42c0.162,0.059,0.322,0.119,0.484,0.177c0.924,0.328,1.847,0.632,2.768,0.918   c0.192,0.06,0.384,0.115,0.576,0.174c0.956,0.286,1.91,0.558,2.863,0.797c11.354,2.858,19.552,4.514,27.865,4.514c0,0,0,0,0.001,0   c7.73,0,15.337-1.417,25.496-3.888c0.067-0.016,0.137-0.034,0.204-0.05c0.611-0.149,1.228-0.3,1.858-0.457l1.027-0.255   c0.01-0.002,0.018-0.005,0.028-0.008c0.955-0.238,1.911-0.505,2.87-0.789c0.177-0.053,0.355-0.104,0.531-0.158   c1.559-0.474,3.121-1.001,4.681-1.593l2.583,21.438c0.302,2.501,1.744,4.722,3.908,6.013l4.01,2.394l-46.697,34.646l-46.666-34.643   L209.304,319.179z M180.947,323.148c0.102-0.026,0.204-0.037,0.306-0.06c2.901-0.632,6.043,0.025,8.424,1.792l55.875,41.454   l-14.59,27.719l-71.29-65.545L180.947,323.148z M101.883,495.729l3.147-46.184c2-29.339-6.012-58.277-22.559-81.484   c-4.071-5.709-8.544-10.922-13.37-15.588c3.244-1.503,6.639-2.75,10.169-3.701l61.534-15.507l80.899,74.38   c2.673,2.457,6.14,3.811,9.762,3.811c5.382,0,10.282-2.956,12.787-7.715l11.748-22.321l11.748,22.321   c2.505,4.758,7.404,7.714,12.787,7.714c3.622,0,7.089-1.354,9.762-3.811l80.901-74.38l61.537,15.508   c3.531,0.95,6.925,2.198,10.169,3.701c-4.826,4.665-9.299,9.879-13.37,15.588c-16.548,23.207-24.56,52.144-22.559,81.483   l3.147,46.185L101.883,495.729L101.883,495.729z M485.097,494.858c-0.306,0.325-0.975,0.871-2.015,0.871h-56.655l-3.223-47.29   c-1.743-25.592,5.208-50.782,19.574-70.931c4.298-6.027,9.097-11.389,14.314-16.002c0.124,0.104,0.251,0.203,0.374,0.307   c0.242,0.205,0.475,0.42,0.714,0.629c11.062,9.717,18.783,23.188,21.59,38.429c0.067,0.369,0.139,0.734,0.201,1.105   c0.087,0.52,0.163,1.041,0.239,1.565c0.088,0.613,0.168,1.227,0.24,1.844c0.047,0.399,0.095,0.799,0.136,1.201   c0.104,1.045,0.193,2.094,0.252,3.15c0,0.008,0.001,0.015,0.002,0.023l0.038,0.619l4.97,82.414   C485.907,493.832,485.403,494.532,485.097,494.858z"/>
	<path style="fill:#232323;" d="M256.001,269.13c21.977,0,39.856-15.499,39.856-34.55c0-4.493-3.641-8.136-8.135-8.136H224.28   c-4.494,0-8.136,3.643-8.136,8.136C216.144,253.631,234.024,269.13,256.001,269.13z M277.119,242.716   c-3.868,6.007-11.882,10.143-21.119,10.143c-9.237,0-17.249-4.136-21.119-10.143H277.119z"/>
</g>
<g>
</g>
<g>
</g>
<g>
</g>
<g>
</g>
<g>
</g>
<g>
</g>
<g>
</g>
<g>
</g>
<g>
</g>
<g>
</g>
<g>
</g>
<g>
</g>
<g>
</g>
<g>
</g>
<g>
</g>
</svg>
